<svg xmlns="http://www.w3.org/2000/svg" xmlns:xlink="http://www.w3.org/1999/xlink" width="512" zoomAndPan="magnify" viewBox="0 0 384 383.999986" height="512" preserveAspectRatio="xMidYMid meet" version="1.0"><defs><clipPath id="e3cd91a8bb"><path d="M 38.398438 54 L 345 54 L 345 330.511719 L 38.398438 330.511719 Z M 38.398438 54 " clip-rule="nonzero"/></clipPath></defs><g clip-path="url(#e3cd91a8bb)"><path fill="#000000" d="M 267.878906 330.207031 C 265.847656 330.207031 263.898438 329.820312 262.023438 329.042969 C 260.148438 328.265625 258.496094 327.160156 257.0625 325.726562 L 193.039062 261.707031 L 157.726562 308.789062 C 156.890625 309.910156 155.917969 310.894531 154.8125 311.746094 C 153.703125 312.601562 152.503906 313.289062 151.207031 313.8125 C 149.910156 314.335938 148.566406 314.675781 147.179688 314.832031 C 145.789062 314.988281 144.40625 314.953125 143.027344 314.730469 C 141.644531 314.503906 140.320312 314.097656 139.054688 313.511719 C 137.785156 312.925781 136.617188 312.179688 135.554688 311.273438 C 134.492188 310.367188 133.566406 309.332031 132.789062 308.171875 C 132.007812 307.015625 131.394531 305.769531 130.957031 304.445312 L 102.386719 218.664062 L 46.851562 190.902344 C 45.527344 190.242188 44.324219 189.402344 43.242188 188.390625 C 42.160156 187.378906 41.246094 186.234375 40.496094 184.957031 C 39.75 183.679688 39.195312 182.324219 38.839844 180.882812 C 38.488281 179.445312 38.34375 177.988281 38.414062 176.507812 C 38.480469 175.027344 38.757812 173.589844 39.246094 172.191406 C 39.734375 170.792969 40.410156 169.492188 41.273438 168.289062 C 42.136719 167.085938 43.15625 166.03125 44.324219 165.125 C 45.496094 164.21875 46.773438 163.496094 48.152344 162.960938 L 323.527344 55.867188 C 324.832031 55.359375 326.183594 55.039062 327.582031 54.902344 C 328.976562 54.765625 330.363281 54.820312 331.746094 55.0625 C 333.125 55.308594 334.449219 55.738281 335.710938 56.34375 C 336.976562 56.953125 338.132812 57.722656 339.183594 58.648438 C 340.238281 59.578125 341.144531 60.628906 341.90625 61.804688 C 342.671875 62.984375 343.257812 64.242188 343.675781 65.582031 C 344.09375 66.917969 344.320312 68.289062 344.363281 69.691406 C 344.402344 71.09375 344.25 72.476562 343.910156 73.835938 L 282.71875 318.617188 C 282.511719 319.441406 282.238281 320.238281 281.902344 321.015625 C 281.5625 321.792969 281.164062 322.535156 280.703125 323.246094 C 280.242188 323.957031 279.722656 324.625 279.152344 325.246094 C 278.578125 325.871094 277.957031 326.445312 277.292969 326.964844 C 276.625 327.488281 275.917969 327.949219 275.171875 328.355469 C 274.429688 328.757812 273.65625 329.097656 272.855469 329.375 C 272.054688 329.648438 271.238281 329.859375 270.402344 329.996094 C 269.566406 330.136719 268.722656 330.207031 267.878906 330.207031 Z M 202.390625 227.78125 L 259.59375 284.984375 L 307.019531 95.101562 L 91.410156 178.96875 L 121.777344 194.132812 C 123.585938 195.042969 125.15625 196.261719 126.480469 197.796875 C 127.804688 199.328125 128.789062 201.058594 129.425781 202.980469 L 150.789062 267.070312 L 171.207031 239.851562 L 165.292969 233.929688 C 164.582031 233.222656 163.949219 232.449219 163.390625 231.613281 C 162.832031 230.777344 162.363281 229.898438 161.976562 228.96875 C 161.59375 228.039062 161.304688 227.085938 161.109375 226.097656 C 160.914062 225.113281 160.8125 224.121094 160.8125 223.117188 C 160.8125 222.109375 160.914062 221.117188 161.109375 220.132812 C 161.304688 219.144531 161.59375 218.191406 161.976562 217.261719 C 162.363281 216.332031 162.832031 215.453125 163.390625 214.617188 C 163.949219 213.78125 164.582031 213.007812 165.292969 212.300781 L 226.488281 151.101562 C 227.203125 150.414062 227.976562 149.796875 228.808594 149.257812 C 229.644531 148.71875 230.523438 148.265625 231.445312 147.898438 C 232.367188 147.53125 233.316406 147.253906 234.292969 147.070312 C 235.269531 146.886719 236.253906 146.800781 237.25 146.808594 C 238.242188 146.816406 239.226562 146.921875 240.199219 147.121094 C 241.171875 147.324219 242.117188 147.613281 243.03125 148 C 243.949219 148.382812 244.816406 148.851562 245.640625 149.40625 C 246.46875 149.960938 247.230469 150.585938 247.933594 151.289062 C 248.636719 151.992188 249.261719 152.753906 249.816406 153.582031 C 250.371094 154.40625 250.839844 155.277344 251.222656 156.191406 C 251.609375 157.109375 251.898438 158.050781 252.101562 159.023438 C 252.300781 160 252.40625 160.980469 252.414062 161.976562 C 252.421875 162.96875 252.335938 163.953125 252.152344 164.929688 C 251.96875 165.90625 251.691406 166.855469 251.324219 167.777344 C 250.957031 168.699219 250.503906 169.578125 249.964844 170.414062 C 249.425781 171.246094 248.808594 172.023438 248.121094 172.734375 L 197.726562 223.117188 L 202.039062 227.4375 Z M 202.390625 227.78125 " fill-opacity="1" fill-rule="nonzero"/></g></svg>