<svg xmlns="http://www.w3.org/2000/svg" xmlns:xlink="http://www.w3.org/1999/xlink" width="512" zoomAndPan="magnify" viewBox="0 0 384 383.999986" height="512" preserveAspectRatio="xMidYMid meet" version="1.0"><path fill="#f7da65" d="M 339 384 L 45 384 C 20.25 384 0 363.75 0 339 L 0 45 C 0 20.25 20.25 0 45 0 L 339 0 C 363.75 0 384 20.25 384 45 L 384 339 C 384 363.75 363.75 384 339 384 Z M 339 384 " fill-opacity="1" fill-rule="evenodd"/><path fill="#000000" d="M 186.9375 237.441406 C 204.433594 262.273438 221.925781 287.101562 239.421875 311.933594 C 241.746094 315.234375 245.488281 316.761719 249.449219 316.027344 C 253.402344 315.292969 256.34375 312.515625 257.332031 308.601562 L 314.632812 80.265625 C 315.308594 77.558594 314.886719 74.859375 313.507812 72.613281 Z M 146.167969 302.316406 C 145.851562 301.867188 145.6875 301.363281 145.65625 300.855469 L 138.066406 213.316406 L 72.511719 182.976562 C 66.734375 180.308594 63.246094 174.699219 63.40625 168.34375 C 63.570312 162.007812 67.34375 156.546875 73.238281 154.191406 L 299.054688 63.277344 C 304.53125 61.074219 310.679688 62.085938 315.136719 65.910156 C 315.195312 65.960938 315.253906 66.015625 315.316406 66.066406 C 319.71875 69.960938 321.5625 75.921875 320.121094 81.644531 L 262.824219 309.984375 C 261.308594 316.011719 256.574219 320.46875 250.46875 321.601562 C 244.425781 322.726562 238.394531 320.332031 234.773438 315.195312 L 200.949219 267.179688 L 150.1875 302.941406 C 148.921875 303.914062 147.097656 303.628906 146.167969 302.316406 Z M 156.914062 291.277344 L 197.683594 262.550781 L 183.703125 242.707031 Z M 308.535156 68.453125 C 306.21875 67.546875 303.621094 67.546875 301.171875 68.535156 L 75.351562 159.441406 C 70.84375 161.257812 69.148438 165.300781 69.066406 168.480469 C 68.984375 171.660156 70.476562 175.785156 74.878906 177.824219 L 140.300781 208.101562 Z M 143.691406 212.65625 L 150.511719 291.148438 L 180.929688 235.996094 C 181.011719 235.84375 181.109375 235.703125 181.214844 235.574219 L 295.695312 86.476562 Z M 143.691406 212.65625 " fill-opacity="1" fill-rule="evenodd"/><path fill="#0087ff" d="M 140.308594 208.101562 L 308.535156 68.453125 C 306.21875 67.546875 303.621094 67.546875 301.171875 68.535156 L 75.351562 159.441406 C 70.84375 161.257812 69.148438 165.300781 69.066406 168.480469 C 68.984375 171.660156 70.476562 175.785156 74.878906 177.824219 Z M 140.308594 208.101562 " fill-opacity="1" fill-rule="evenodd"/><path fill="#46f8ff" d="M 295.703125 86.476562 L 143.691406 212.65625 L 150.511719 291.148438 L 180.929688 236.003906 C 181.011719 235.851562 181.109375 235.710938 181.214844 235.582031 Z M 295.703125 86.476562 " fill-opacity="1" fill-rule="evenodd"/><path fill="#0087ff" d="M 197.691406 262.550781 L 183.710938 242.707031 L 156.914062 291.277344 Z M 197.691406 262.550781 " fill-opacity="1" fill-rule="evenodd"/><path fill="#0087ff" d="M 186.9375 237.441406 L 239.421875 311.933594 C 241.746094 315.234375 245.488281 316.761719 249.449219 316.027344 C 253.402344 315.292969 256.34375 312.515625 257.332031 308.601562 L 314.632812 80.265625 C 315.308594 77.558594 314.886719 74.859375 313.507812 72.613281 Z M 186.9375 237.441406 " fill-opacity="1" fill-rule="evenodd"/></svg>