<svg xmlns="http://www.w3.org/2000/svg" xmlns:xlink="http://www.w3.org/1999/xlink" width="512" zoomAndPan="magnify" viewBox="0 0 384 383.999986" height="512" preserveAspectRatio="xMidYMid meet" version="1.0"><defs><clipPath id="4974a45792"><path d="M 42 0 L 342 0 C 365.195312 0 384 18.804688 384 42 L 384 342 C 384 365.195312 365.195312 384 342 384 L 42 384 C 18.804688 384 0 365.195312 0 342 L 0 42 C 0 18.804688 18.804688 0 42 0 Z M 42 0 " clip-rule="nonzero"/></clipPath><clipPath id="ab7c58f157"><path d="M 69 56.335938 L 314.191406 56.335938 L 314.191406 327.925781 L 69 327.925781 Z M 69 56.335938 " clip-rule="nonzero"/></clipPath></defs><g clip-path="url(#4974a45792)"><rect x="-38.4" width="460.8" fill="#f7da65" y="-38.399999" height="460.799983" fill-opacity="1"/></g><g clip-path="url(#ab7c58f157)"><path fill="#ffffff" d="M 230.421875 191.988281 L 314.21875 66.289062 C 315.472656 64.402344 315.597656 61.980469 314.527344 59.980469 C 313.457031 57.984375 311.371094 56.730469 309.101562 56.730469 L 263.976562 56.730469 C 261.964844 56.730469 260.078125 57.714844 258.929688 59.367188 L 192.289062 155.097656 L 125.644531 59.367188 C 124.496094 57.714844 122.613281 56.730469 120.601562 56.730469 L 75.476562 56.730469 C 73.207031 56.730469 71.125 57.976562 70.054688 59.976562 C 68.984375 61.972656 69.105469 64.402344 70.359375 66.285156 L 154.160156 191.988281 L 70.359375 317.683594 C 69.105469 319.570312 68.984375 321.996094 70.054688 323.992188 C 71.125 325.992188 73.207031 327.246094 75.476562 327.246094 L 120.601562 327.246094 C 122.613281 327.246094 124.5 326.261719 125.652344 324.605469 L 192.289062 228.875 L 258.933594 324.605469 C 260.085938 326.261719 261.964844 327.246094 263.976562 327.246094 L 309.101562 327.246094 C 311.371094 327.246094 313.457031 325.996094 314.527344 324 C 315.597656 322 315.472656 319.570312 314.21875 317.691406 Z M 230.421875 191.988281 " fill-opacity="1" fill-rule="nonzero"/></g></svg>