<svg xmlns="http://www.w3.org/2000/svg" xmlns:xlink="http://www.w3.org/1999/xlink" width="512" zoomAndPan="magnify" viewBox="0 0 384 383.999986" height="512" preserveAspectRatio="xMidYMid meet" version="1.0"><defs><clipPath id="f36ec318aa"><path d="M 69 56.335938 L 315.464844 56.335938 L 315.464844 327.832031 L 69 327.832031 Z M 69 56.335938 " clip-rule="nonzero"/></clipPath></defs><g clip-path="url(#f36ec318aa)"><path fill="#000000" d="M 230.558594 192.085938 L 314.429688 66.292969 C 315.683594 64.402344 315.808594 61.980469 314.738281 59.980469 C 313.667969 57.980469 311.582031 56.726562 309.308594 56.726562 L 264.144531 56.726562 C 262.132812 56.726562 260.242188 57.710938 259.09375 59.363281 L 192.394531 155.167969 L 125.695312 59.363281 C 124.542969 57.710938 122.660156 56.726562 120.648438 56.726562 L 75.480469 56.726562 C 73.210938 56.726562 71.125 57.972656 70.054688 59.972656 C 68.984375 61.972656 69.105469 64.402344 70.363281 66.285156 L 154.234375 192.085938 L 70.363281 317.875 C 69.105469 319.765625 68.984375 322.1875 70.054688 324.1875 C 71.125 326.1875 73.210938 327.441406 75.480469 327.441406 L 120.648438 327.441406 C 122.660156 327.441406 124.550781 326.457031 125.699219 324.804688 L 192.394531 229 L 259.097656 324.804688 C 260.25 326.457031 262.132812 327.441406 264.144531 327.441406 L 309.308594 327.441406 C 311.582031 327.441406 313.667969 326.195312 314.738281 324.195312 C 315.808594 322.195312 315.683594 319.765625 314.429688 317.882812 Z M 230.558594 192.085938 " fill-opacity="1" fill-rule="nonzero"/></g></svg>